# xmcd
#
# Track frame offsets:
# 150
# 19640
# 38512
# 60057
# 75908
# 89135
# 111287
# 136065
# 148636
# 162192
# 180713
# 199947
#
# Disc length: 3029 seconds
#
#
# Revision: 0
# Processed by: cddbd v1.5.1PL2 Copyright (c) Steve Scherf et al.
# Submitted via: FreeRIP 2.91 
#
DISCID=900bd30c
DTITLE=Mickey and the Motorcars - Which way From Here
DYEAR=2001
DGENRE=Country
TTITLE0=Which Way from Here
TTITLE1=Come Runnin
TTITLE2=Cold Northern Town Blues
TTITLE3=Rambler's Blues
TTITLE4=Finding Me
TTITLE5=Stranger in the Mirror
TTITLE6=Mary Mary
TTITLE7=Empty Hands
TTITLE8=What Do You Have For Love
TTITLE9=Be There For Me
TTITLE10=The band Song
TTITLE11=Shaft
EXTD=
EXTT0=
EXTT1=
EXTT2=
EXTT3=
EXTT4=
EXTT5=
EXTT6=
EXTT7=
EXTT8=
EXTT9=
EXTT10=
EXTT11=
PLAYORDER=
